ply
format ascii 1.0
element vertex 100
property float x
property float y
property float z
property uchar red
property uchar green
property uchar blue
end_header
-12.644461 1.750614 34.875168 51 204 127
-15.231200 2.150725 42.009892 51 204 127
-14.087392 -11.130625 42.979115 51 204 127
-14.412863 -7.781077 45.240559 51 204 127
-16.430553 -9.303560 38.915760 51 204 127
-6.375205 -4.202643 47.423141 51 204 127
-13.613581 -8.025847 33.211285 51 204 127
-7.892388 -2.342757 24.749693 51 204 127
-16.862364 -9.188859 42.479698 51 204 127
-5.359780 -1.587796 17.028732 51 204 127
-8.781194 4.847458 33.222801 51 204 127
-10.193182 -6.179356 37.340725 51 204 127
-20.304993 -16.214197 42.216366 51 204 127
-3.862509 -3.088859 8.810709 51 204 127
-5.232374 -4.226410 12.117209 51 204 127
-11.655664 -7.581702 46.336193 51 204 127
-12.565375 -6.194087 36.271900 51 204 127
-17.044880 2.325383 45.213634 51 204 127
-17.150927 2.510630 46.647350 51 204 127
-6.882749 0.944245 19.411356 51 204 127
-10.992621 6.127580 43.206753 51 204 127
-9.303666 1.170663 42.398911 51 204 127
-7.724045 1.499590 29.050680 51 204 127
-7.647488 1.464010 28.529245 51 204 127
-6.802934 -2.236686 20.353785 51 204 127
-10.286969 5.635137 44.817078 51 204 127
-7.633636 1.426025 28.549742 51 204 127
-7.106104 0.975386 19.813662 51 204 127
-15.833842 6.101577 45.253422 51 204 127
-9.296208 1.221784 42.439720 51 204 127
-3.124091 -3.164867 31.717819 51 204 127
-7.898803 1.946632 27.549356 51 204 127
-14.032280 -7.771935 43.802692 51 204 127
-1.918872 -0.741372 6.629620 51 204 127
-1.296758 -1.175734 5.560165 51 204 127
-3.778030 -3.570197 41.118778 51 204 127
3.471941 -2.872279 0.912776 51 204 127
24.212744 12.233905 27.413649 51 204 127
26.665033 11.295922 36.496658 51 204 127
19.001539 11.773884 22.858351 51 204 127
10.754247 6.138870 9.096941 51 204 127
31.731709 10.705080 24.292841 51 204 127
-2.089179 -4.615678 1.472594 51 204 127
-1.851776 -4.976873 1.674937 51 204 127
11.380471 -18.584923 3.284237 51 204 127
-0.486834 -2.566872 -4.656786 51 204 127
6.635142 -12.529302 -1.687643 51 204 127
13.812864 -23.042952 2.129792 51 204 127
22.536879 -31.563009 3.903725 51 204 127
15.612713 -18.082590 4.157064 51 204 127
13.826941 -15.685117 4.591162 51 204 127
1.428120 14.151477 1.108437 51 204 127
-3.946557 20.167572 10.930683 51 204 127
-4.665331 21.712482 13.518918 51 204 127
-4.454982 21.323507 12.511260 51 204 127
-1.721386 40.990067 8.209599 51 204 127
2.892090 -0.005794 -27.899183 51 204 127
0.184082 11.017026 -22.599810 51 204 127
-2.493089 11.451239 -7.693257 51 204 127
0.759865 11.167874 -17.881912 51 204 127
-1.613944 11.268762 -13.463451 51 204 127
-0.083501 11.055042 -21.086409 51 204 127
4.671029 10.911421 -32.924423 51 204 127
-0.391643 11.338073 -13.063197 51 204 127
-0.320075 11.018072 -21.217747 51 204 127
-1.446430 8.861605 -20.040236 51 204 127
2.450424 3.991447 -43.075603 51 204 127
-1.707873 11.275301 -12.796509 51 204 127
-1.282640 10.962900 -23.425421 51 204 127
-2.785545 5.542884 -44.368790 51 204 127
-3.080344 6.800579 -34.027187 51 204 127
-4.636744 10.835240 -31.501568 51 204 127
0.886014 11.201460 -18.352827 51 204 127
1.394519 13.534418 -35.282944 51 204 127
-2.686850 11.436649 -6.752049 51 204 127
-1.573336 13.863601 -40.068733 51 204 127
-1.896861 12.360144 -19.050161 51 204 127
-4.727650 10.579566 -37.925442 51 204 127
-0.469517 10.727144 -31.373653 51 204 127
-0.621465 13.586547 -38.056301 51 204 127
-0.305037 12.906309 -23.574898 51 204 127
-3.282210 10.798626 -24.902664 51 204 127
-3.775154 10.277543 -31.330030 51 204 127
-1.914050 10.818208 -21.126007 51 204 127
-2.981608 8.663432 -16.688307 51 204 127
2.358749 8.831112 9.666150 51 204 127
2.397151 8.854939 9.866881 51 204 127
-7.778446 38.998184 -9.908473 51 204 127
-11.481500 34.793507 -10.053973 51 204 127
-11.597450 35.142365 -10.164106 51 204 127
-12.391698 37.532547 -10.890702 51 204 127
-8.729413 26.418264 -7.492690 51 204 127
-11.889444 36.017311 -10.451115 51 204 127
-8.081976 24.474045 -6.901607 51 204 127
-11.370943 34.628761 -10.024222 51 204 127
-12.002936 36.141769 -10.508715 51 204 127
-16.902739 38.736038 -5.706006 51 204 127
-6.319850 9.976166 -7.004801 51 204 127
-7.791821 11.698853 -5.704739 51 204 127
-7.024536 15.355955 3.500632 51 204 127
