ply
format ascii 1.0
element vertex 156
property float x
property float y
property float z
property uchar red
property uchar green
property uchar blue
end_header
18.323015 -7.170493 38.014549 51 204 127
8.993319 -4.703520 44.818619 51 204 127
-2.763788 -2.618025 9.436265 51 204 127
2.375425 -2.516685 25.573513 51 204 127
0.425817 -1.030530 8.629360 51 204 127
10.634085 -4.008050 43.227413 51 204 127
0.464425 -1.474052 12.953012 51 204 127
2.234680 -3.070464 25.962149 51 204 127
0.614707 -1.365657 23.334927 51 204 127
0.387700 -1.323728 17.531958 51 204 127
0.389296 -0.870656 6.885152 51 204 127
8.561914 -4.049705 33.997124 51 204 127
0.375156 -0.273886 1.256602 51 204 127
4.206406 -3.875885 35.268635 51 204 127
0.474783 -0.712664 10.262282 51 204 127
8.588461 -4.816728 37.286705 51 204 127
-13.498598 -2.967827 44.292194 51 204 127
-8.781625 5.851137 43.641087 51 204 127
10.682871 -4.903409 42.852623 51 204 127
-12.679140 -5.938166 35.435398 51 204 127
0.337452 -1.283396 11.039746 51 204 127
-4.783346 -2.978506 13.957088 51 204 127
-3.142029 -2.238196 15.509644 51 204 127
-11.006414 2.511230 33.247391 51 204 127
-6.455654 1.629839 19.718063 51 204 127
-10.080657 -3.788133 40.105404 51 204 127
-6.218920 3.400279 20.532190 51 204 127
-5.135854 2.529977 14.146642 51 204 127
-2.114863 -2.646992 41.484970 51 204 127
-3.807275 1.194718 10.491244 51 204 127
-5.423983 -2.366020 33.914845 51 204 127
-13.474504 -3.841731 37.908123 51 204 127
-12.641789 -3.672530 45.034897 51 204 127
-8.169389 4.634500 27.265181 51 204 127
-4.473489 1.411003 16.316006 51 204 127
-5.350101 2.951488 17.141750 51 204 127
-5.852137 -2.740362 38.255512 51 204 127
-3.719425 1.873598 9.444317 51 204 127
-4.011731 1.049296 9.698683 51 204 127
-9.509534 1.777062 22.947134 51 204 127
-5.261164 -2.202634 31.541191 51 204 127
-5.005577 1.430370 14.914051 51 204 127
-9.714404 5.497075 32.770348 51 204 127
-4.066720 -1.461963 22.697994 51 204 127
-5.033206 2.069123 11.364762 51 204 127
-17.010784 -10.708366 44.851334 51 204 127
-1.039509 -1.740150 21.673969 51 204 127
-10.734321 -6.109203 26.013596 51 204 127
-13.259880 2.779464 39.615578 51 204 127
-2.868864 0.932866 6.924742 51 204 127
-9.838700 -2.622303 35.980122 51 204 127
-12.894004 2.665512 38.342136 51 204 127
-8.970895 -2.240817 24.098406 51 204 127
-5.338620 3.018944 16.887579 51 204 127
-8.468272 4.709219 29.059069 51 204 127
-5.021423 1.509561 14.753244 51 204 127
-2.439264 0.758324 6.691121 51 204 127
-12.506774 -1.636840 46.272121 51 204 127
-8.330043 -6.072658 38.752419 51 204 127
7.392320 -4.680917 39.091724 51 204 127
-4.515996 1.367795 13.081273 51 204 127
-4.992661 -3.293596 42.551327 51 204 127
-4.095075 0.995039 13.739938 51 204 127
-2.536914 0.785677 6.892466 51 204 127
-5.425523 -2.616244 16.950588 51 204 127
-11.224906 4.729971 29.032190 51 204 127
-17.229431 3.130675 43.273060 51 204 127
-9.043202 4.500919 27.977560 51 204 127
-13.607829 6.800097 44.030731 51 204 127
-13.756818 -1.727888 39.961517 51 204 127
-11.240887 5.475112 34.241039 51 204 127
-9.555450 4.493134 24.282965 51 204 127
-14.322888 2.926049 42.320492 51 204 127
-10.461920 2.008800 25.667971 51 204 127
-15.890861 6.568974 45.878353 51 204 127
-9.434494 -6.980798 44.025784 51 204 127
-11.157785 3.043332 36.864708 51 204 127
0.572139 -8.083928 44.722031 51 204 127
-6.165190 -7.352279 45.540707 51 204 127
4.403904 1.563137 12.534424 51 204 127
5.668238 1.738188 15.087235 51 204 127
17.680351 6.287096 39.287510 51 204 127
12.460305 4.706563 28.280470 51 204 127
6.204224 2.451514 16.527859 51 204 127
13.769135 3.113894 34.715511 51 204 127
16.781837 8.447458 42.216949 51 204 127
7.850174 2.071098 28.394897 51 204 127
14.215946 5.072905 31.978260 51 204 127
7.412943 2.876631 19.133356 51 204 127
1.635034 1.148481 6.152861 51 204 127
3.692196 1.397405 15.059793 51 204 127
13.836390 7.578818 36.132160 51 204 127
6.692593 1.867741 17.699173 51 204 127
11.892370 5.475269 28.106020 51 204 127
9.484104 3.237685 24.074987 51 204 127
15.424604 5.586660 34.590633 51 204 127
8.890186 5.061773 23.511932 51 204 127
17.946478 8.280336 41.689957 51 204 127
12.374873 4.694242 28.033558 51 204 127
3.308145 1.693388 9.848495 51 204 127
3.717033 1.872003 10.796393 51 204 127
8.270043 -4.753548 43.560402 51 204 127
-5.326616 -2.622837 18.477856 51 204 127
-0.981008 5.727952 44.128162 51 204 127
-1.104410 4.626280 34.448879 51 204 127
-1.793432 5.347445 41.623486 51 204 127
-1.390366 4.111242 27.970648 51 204 127
-1.524481 1.916206 9.608566 51 204 127
-1.421315 6.042019 47.856339 51 204 127
4.200636 8.007975 35.444859 51 204 127
-16.663940 2.825129 38.740566 51 204 127
-4.724055 -3.454515 17.461273 51 204 127
-10.293489 -7.409197 45.737408 51 204 127
-2.248379 -0.273303 1.732485 51 204 127
-0.480140 0.538801 3.923810 51 204 127
6.713758 -2.841946 -42.823586 51 204 127
-0.301375 2.613792 4.263784 51 204 127
-0.304347 2.332232 3.857484 51 204 127
-0.297817 2.306661 3.817683 51 204 127
-0.308570 2.290408 3.785264 51 204 127
-0.302303 1.857786 3.139964 51 204 127
-0.299219 2.453810 4.036619 51 204 127
-0.356766 0.662050 4.281017 51 204 127
-43.427876 5.421281 12.777592 51 204 127
-7.726812 3.267404 -2.893071 51 204 127
14.794731 -4.758723 6.405425 51 204 127
13.613499 -4.380072 5.920400 51 204 127
13.747057 -4.420634 5.979468 51 204 127
13.712194 -4.414177 5.956213 51 204 127
26.879566 -8.687431 11.119030 51 204 127
16.954891 -5.475111 7.247067 51 204 127
-17.780033 18.939911 -20.067326 51 204 127
-6.832903 3.460125 2.428911 51 204 127
-11.291254 43.907536 -16.790827 51 204 127
-11.465218 43.599014 -16.527458 51 204 127
-11.380678 43.830555 -17.190948 51 204 127
-29.205788 22.611496 -20.197075 51 204 127
-25.850990 24.592855 -31.485020 51 204 127
-26.856510 18.669098 -16.641539 51 204 127
-32.285191 26.108809 -23.653454 51 204 127
9.864954 0.082578 8.930698 51 204 127
7.264650 0.177297 6.480941 51 204 127
5.175299 -0.136024 3.212234 51 204 127
6.380320 -0.005039 6.153599 51 204 127
7.674072 -0.820439 2.845278 51 204 127
36.341137 -7.555864 24.046661 51 204 127
33.397961 -7.668232 22.062059 51 204 127
40.409988 -15.267558 11.131550 51 204 127
1.896428 3.288440 1.208194 51 204 127
13.046965 -0.119647 4.054547 51 204 127
9.598014 1.769810 10.068797 51 204 127
16.561901 -1.515613 5.354310 51 204 127
7.089347 3.226095 1.385184 51 204 127
11.042062 0.091409 3.298353 51 204 127
4.840425 3.016954 5.015834 51 204 127
4.740955 3.089379 4.896886 51 204 127
