ply
format ascii 1.0
element vertex 201
property float x
property float y
property float z
property uchar red
property uchar green
property uchar blue
end_header
-23.334478 -7.961319 42.968380 51 204 127
-28.750095 -7.447634 86.620712 51 204 127
-26.293894 -16.168894 53.286373 51 204 127
-22.809166 -9.659824 47.924709 51 204 127
-22.456741 -14.243231 79.703300 51 204 127
-26.431761 -12.385789 60.740246 51 204 127
-23.796024 -12.929371 60.778717 51 204 127
-25.786800 -8.815029 46.474136 51 204 127
-21.316919 -25.853640 93.375893 51 204 127
-31.508032 -25.634886 72.286896 51 204 127
-21.865118 -14.673966 83.432594 51 204 127
-24.483091 -16.072948 61.619003 51 204 127
-23.477041 -11.059034 54.130806 51 204 127
-26.564356 -14.310364 78.364403 51 204 127
-27.192671 -15.978670 66.789673 51 204 127
-31.207376 -24.753994 71.219109 51 204 127
-23.414082 -10.888606 53.293781 51 204 127
-27.174868 -15.435749 64.514946 51 204 127
-26.419691 -16.664114 79.016861 51 204 127
-23.977318 -16.903839 66.998718 51 204 127
-29.621122 -18.429508 88.170067 51 204 127
-31.568602 -20.208910 72.749619 51 204 127
-26.334463 -12.068012 59.872311 51 204 127
-29.410484 -21.151628 68.247284 51 204 127
-30.198503 -18.722971 59.935329 51 204 127
-25.351137 -10.032848 52.849689 51 204 127
-24.238390 -9.280484 44.428696 51 204 127
-27.708849 -22.085451 63.370762 51 204 127
-27.009998 -21.370695 61.434456 51 204 127
-30.271927 -21.071293 84.202049 51 204 127
-29.602142 -14.390004 61.834270 51 204 127
-24.091818 -13.583133 57.010952 51 204 127
-20.012911 -8.418173 78.922699 51 204 127
-12.889208 -6.435095 50.676243 51 204 127
-25.267557 -8.162216 45.382820 51 204 127
-23.672945 -8.743937 50.549450 51 204 127
-25.358545 -16.089367 90.438721 51 204 127
-27.579853 -18.161316 69.735992 51 204 127
-29.962704 -16.482529 54.389271 51 204 127
-23.796976 -10.697513 65.002922 51 204 127
-23.682728 -12.293057 64.682587 51 204 127
-23.274948 -18.435757 73.082451 51 204 127
-23.100742 -23.581717 85.162621 51 204 127
-33.320320 -18.208874 60.401855 51 204 127
-24.867714 -25.380339 91.685822 51 204 127
-25.451981 -9.344892 54.671909 51 204 127
-21.754887 -15.538241 83.007904 51 204 127
-23.412218 -14.654608 69.836922 51 204 127
-20.768755 -15.108255 61.428104 51 204 127
-17.872555 -14.541337 56.356781 51 204 127
-30.389900 -17.666151 74.067696 51 204 127
-21.681803 -17.142746 64.839478 51 204 127
-25.477856 -16.604097 88.637939 51 204 127
-26.732708 -18.471058 77.227951 51 204 127
-26.677908 -17.409147 76.558617 51 204 127
-26.729542 -13.103889 77.781448 51 204 127
-17.980923 2.517752 49.584862 51 204 127
-24.879986 -14.764494 61.583851 51 204 127
-25.704136 -10.909876 54.109463 51 204 127
-21.334660 4.898268 78.642258 51 204 127
-29.571703 -18.208355 60.101482 51 204 127
-21.994879 -22.560064 81.247597 51 204 127
-14.641742 -15.122512 90.111908 51 204 127
-28.662601 -12.104625 60.135120 51 204 127
-32.090549 -16.281507 56.966393 51 204 127
-21.237465 -12.527290 52.355549 51 204 127
-15.347470 -13.491533 68.564178 51 204 127
-24.193268 -18.916672 95.006638 51 204 127
-19.848557 -5.116593 91.665825 51 204 127
-25.733593 -17.841757 58.559193 51 204 127
-30.328150 -17.159018 72.535881 51 204 127
-29.557999 -13.850478 68.163780 51 204 127
-25.157946 -14.221436 68.949875 51 204 127
-20.474848 -16.496965 64.412979 51 204 127
-15.726832 -11.390017 46.517750 51 204 127
-33.751270 -21.109016 67.406662 51 204 127
-19.202951 -11.300108 47.080269 51 204 127
-28.377859 4.030269 77.500313 51 204 127
-24.846909 -17.143078 71.532455 51 204 127
-24.153067 -12.249477 43.215805 51 204 127
-24.999987 -16.005711 62.173641 51 204 127
-27.941162 -14.800553 69.354797 51 204 127
-37.930317 -29.166811 85.702202 51 204 127
-16.614426 -9.378503 39.392555 51 204 127
-21.103628 3.007813 58.197536 51 204 127
-7.797301 -7.229342 81.997589 51 204 127
-19.531693 -6.691605 35.940823 51 204 127
-29.825512 -14.846556 71.686516 51 204 127
-22.711840 -16.870182 54.561886 51 204 127
-18.037642 -9.656754 53.493782 51 204 127
-25.047253 4.750346 91.776894 51 204 127
-15.670132 -11.849537 68.767593 51 204 127
-24.292000 8.930411 68.797623 51 204 127
-13.504972 -10.659673 41.257278 51 204 127
-11.250021 -4.226193 44.345589 51 204 127
-30.163597 -15.590041 63.256844 51 204 127
-21.533602 -16.951914 67.808151 51 204 127
-31.184139 -16.532408 77.308128 51 204 127
-17.113825 -7.498008 68.199318 51 204 127
-30.412699 -17.410536 72.396912 51 204 127
-24.921820 -17.921808 57.878914 51 204 127
-32.285397 -25.652206 66.362473 51 204 127
-24.903803 -16.621040 70.508446 51 204 127
-21.100548 -8.916938 43.351215 51 204 127
-16.246557 -14.097528 85.746597 51 204 127
-34.774609 -20.452007 84.865517 51 204 127
-21.621910 -17.678759 67.627434 51 204 127
14.813689 -8.203948 85.629410 51 204 127
-26.528582 -13.517324 72.570168 51 204 127
-19.842627 3.419510 63.899475 51 204 127
-24.009964 -17.061417 90.498688 51 204 127
-16.002287 -8.662790 37.598171 51 204 127
-0.723828 8.333417 79.401627 51 204 127
-25.045544 -16.601000 63.520020 51 204 127
-9.740341 -2.850594 30.573076 51 204 127
-19.661015 -15.694797 70.346443 51 204 127
-21.346243 -9.789277 48.544621 51 204 127
-30.699596 -24.484131 63.419064 51 204 127
-27.743351 -22.822638 62.947861 51 204 127
-21.104462 -14.885129 58.887051 51 204 127
-17.313711 -12.859570 60.189709 51 204 127
-34.398003 -18.806068 80.757240 51 204 127
-21.370239 -15.770639 63.922901 51 204 127
-18.409544 -9.590160 50.442074 51 204 127
-6.810759 -7.584527 68.204170 51 204 127
-2.162574 -12.739870 72.457672 51 204 127
-18.872219 -12.671467 53.395767 51 204 127
-13.212385 -11.682824 59.695621 51 204 127
-9.225704 -10.601849 58.361259 51 204 127
-21.926081 -13.825850 77.321556 51 204 127
-27.073957 12.238942 90.406929 51 204 127
-18.459654 -14.100630 57.155399 51 204 127
-14.013869 -12.568562 71.452904 51 204 127
20.540834 -9.362967 83.573509 51 204 127
-18.878653 -10.324732 48.297611 51 204 127
-20.688171 -10.896441 61.219814 51 204 127
-34.858742 -19.615444 84.240395 51 204 127
-11.768361 -20.076618 80.396515 51 204 127
1.443663 8.957642 89.902298 51 204 127
-24.771418 -23.780750 91.345985 51 204 127
-1.880407 -6.355183 78.090553 51 204 127
-25.911104 -19.183374 62.094257 51 204 127
-18.075247 -7.265132 39.230534 51 204 127
-24.655476 -9.405066 48.322968 51 204 127
-18.696903 -13.781951 55.860348 51 204 127
-16.264814 -11.978798 48.457020 51 204 127
-18.203205 4.142691 67.205223 51 204 127
-14.781463 -10.835464 43.643665 51 204 127
-23.537554 3.795279 76.142654 51 204 127
-25.538565 -15.097016 71.753616 51 204 127
-3.204600 -12.705103 72.023140 51 204 127
-17.513784 9.491488 70.149025 51 204 127
-16.845438 -5.711553 29.988216 51 204 127
-18.626270 4.189903 85.827087 51 204 127
-15.347711 -14.203177 84.474434 51 204 127
-15.069982 -7.346686 58.453342 51 204 127
-12.894903 -7.542959 45.974052 51 204 127
17.003922 7.941522 -46.497570 51 204 127
21.438696 9.076571 -59.008057 51 204 127
13.210730 10.424055 -62.053398 51 204 127
11.705059 6.667487 -36.954365 51 204 127
24.810017 6.836305 -89.173920 51 204 127
-1.243059 11.449249 -99.122635 51 204 127
18.505413 11.224063 -70.985725 51 204 127
8.697631 -1.052206 -38.755459 51 204 127
12.342050 -1.067237 -36.936478 51 204 127
8.793598 7.764461 -43.099850 51 204 127
21.229099 4.896348 -66.488541 51 204 127
18.445496 5.535872 -83.197792 51 204 127
5.545860 4.459979 -20.206400 51 204 127
2.307923 -10.975616 -72.385757 51 204 127
30.247566 -7.324457 -91.455742 51 204 127
22.787298 -7.972774 -90.704865 51 204 127
14.327103 -11.818470 -75.666992 51 204 127
0.185608 0.945301 0.628976 51 204 127
0.177937 0.939479 0.613845 51 204 127
0.209960 0.982574 0.685714 51 204 127
0.169282 0.924842 0.595203 51 204 127
0.174902 0.934704 0.607339 51 204 127
0.113678 0.845071 0.489940 51 204 127
0.170228 0.926485 0.597221 51 204 127
0.183577 0.948282 0.626114 51 204 127
0.156914 0.907217 0.570387 51 204 127
0.190293 0.957693 0.640742 51 204 127
0.173591 0.933697 0.604872 51 204 127
0.191934 0.956913 0.643519 51 204 127
0.189612 0.957206 0.639387 51 204 127
0.157765 0.909797 0.572434 51 204 127
0.172711 0.931926 0.602887 51 204 127
0.157729 0.907209 0.571706 51 204 127
0.157746 0.908803 0.572131 51 204 127
0.184987 0.950440 0.629208 51 204 127
0.190751 0.954717 0.640756 51 204 127
0.110502 0.841712 0.484566 51 204 127
0.103703 0.839411 0.478081 51 204 127
0.252953 0.883340 0.451744 51 204 127
0.652831 0.066234 1.118296 51 204 127
0.654625 0.066184 1.110706 51 204 127
0.656875 0.067644 1.112869 51 204 127
0.106540 -0.470495 0.326323 51 204 127
0.653311 0.066467 1.111100 51 204 127
